<svg width="7456" height="3558" fill="none" xmlns="http://www.w3.org/2000/svg"><path fill-rule="evenodd" clip-rule="evenodd" d="M2802 0l-894 1430 694-176L2802 0z" fill="#000"/><path fill-rule="evenodd" clip-rule="evenodd" d="M2802 0l-894 1430 416-404L2802 0z" fill="#1A1A1A"/><path fill-rule="evenodd" clip-rule="evenodd" d="M1798 1656L608 3558l1922-2054-732 152z" fill="#fff"/><path fill-rule="evenodd" clip-rule="evenodd" d="M1798 1656L608 3558l1370-1940-180 38z" fill="#E6E6E6"/><path fill-rule="evenodd" clip-rule="evenodd" d="M74 938l208 876-262-162 54-714z" fill="#000"/><path fill-rule="evenodd" clip-rule="evenodd" d="M74 938l20 84-22 662-52-32 54-714z" fill="#1A1A1A"/><path fill-rule="evenodd" clip-rule="evenodd" d="M298 1990l310 1568L0 1774l298 216z" fill="#fff"/><path fill-rule="evenodd" clip-rule="evenodd" d="M100 1908l508 1650L0 1774l100 134z" fill="#E6E6E6"/><path d="M3324 996.729h558.04v137.561h-422.08v251.37h422.08v135.96h-420.52v482.18H3324V996.729zm655.27 678.231c0-89.05 35.02-168.11 105.13-237.15 70.6-69.56 151.49-104.34 242.65-104.34 93.79 0 175.73 34.26 245.83 102.78 70.08 67.97 105.13 147.55 105.13 238.71 0 91.72-34.53 172.59-103.56 242.7-68.49 69.56-147.82 104.34-237.91 104.34-96.45 0-180.23-34.53-251.37-103.55-70.6-69.04-105.9-150.21-105.9-243.49zm565.94 0c0-55.31-21.08-103.27-63.24-143.87-42.16-41.09-92.2-61.65-150.17-61.65-59.54 0-110.93 20.83-154.13 62.45-42.69 41.12-64.04 90.39-64.04 147.82 0 54.82 21.6 102.78 64.81 143.87 43.75 41.1 94.86 61.66 153.36 61.66 56.9 0 106.69-21.08 149.38-63.25 42.68-42.14 64.03-91.16 64.03-147.03zm231.59-323.29h166.78l145.46 185.76 142.27-185.76h165.19l-226.85 294.06 274.28 358.07H5280.3l-192.86-248.98-194.45 248.98h-162.03l275.87-358.07-230.03-294.06zM5974.3 958l475.83 1045.8H6306.3l-117.79-257.68h-427.63l-114.6 257.68h-143.06L5974.3 958zm0 315.41l-162.03 358.1h324.06l-162.03-358.1zm742.22 78.26v134.37c30.56-53.74 60.34-92.48 89.32-116.2 29.51-24.24 67.72-36.37 114.61-36.37 13.17 0 32.14 3.18 56.92 9.5l-41.91 137.53c-26.35-5.27-43.73-7.91-52.15-7.91-46.39 0-85.37 16.36-116.99 49.03-31.1 32.15-46.64 72.45-46.64 120.95v361.23h-137.55v-652.13h134.39zm463.98-189.71h137.54v189.71H7454v125.67h-135.96v526.46H7180.5v-526.46h-108.29v-127.26h108.29v-188.12z" fill="#000"/><path d="M6616.32 2337.98l-23.96 21.08c-6.2-4.4-11.58-7.72-16.12-9.92-4.54-2.34-9.92-3.5-16.12-3.5-14.6 0-21.9 5.36-21.9 16.1 0 7.72 9.24 15.22 27.68 22.54 18.6 7.16 31.96 15.08 40.1 23.76 8.12 8.66 12.18 19.14 12.18 31.4 0 14.32-5.84 26.86-17.56 37.6-11.7 10.6-25.48 15.92-41.32 15.92-24.1 0-43.88-11.16-59.3-33.48l28.3-13.64c9.92 9.64 20.26 14.46 31 14.46 7.44 0 13.92-2 19.42-5.98 5.64-4.14 8.48-8.9 8.48-14.26 0-9.5-9.78-18.04-29.34-25.62-19.56-7.58-33.14-15.22-40.72-22.94-7.44-7.84-11.16-17.5-11.16-28.92 0-14.2 5.32-25.98 15.92-35.34 10.74-9.5 24.18-14.26 40.3-14.26 16.1 0 34.16 8.34 54.12 25zm49.6-69.84h35.94v49.6h35.54v32.86h-35.54v137.6h-35.94v-137.6h-28.32v-33.28h28.32v-49.18zm97.1 49.6h35.96v96.08c0 29.62 13.02 44.42 39.04 44.42 11.58 0 20.74-3.92 27.48-11.78 6.76-7.98 10.14-18.86 10.14-32.64v-96.08h35.54v101.86c0 21.36-6.96 38.92-20.88 52.7-13.9 13.76-31.68 20.66-53.3 20.66-22.04 0-39.88-6.9-53.52-20.66-13.64-13.78-20.46-31.76-20.46-53.94v-100.62zm334.52-97.74h35.54v268.2h-35.12v-35.54c-16.94 26.86-39.12 40.3-66.54 40.3-22.18 0-41.18-8.9-57.02-26.66-15.84-17.78-23.76-39.12-23.76-64.06 0-24.38 8.06-45.32 24.18-62.8 16.1-17.64 35.32-26.46 57.64-26.46 13.36 0 25.82 3.72 37.4 11.16 11.56 7.44 20.8 17.16 27.68 29.14V2220zm4.14 182.66c0-15.3-5.58-28.52-16.74-39.68-11.16-11.28-24.46-16.94-39.88-16.94-15.98 0-29.54 5.52-40.7 16.54-11.02 10.88-16.54 24.24-16.54 40.08 0 15.16 5.66 28.44 16.96 39.88 11.28 11.3 24.44 16.94 39.46 16.94 15.98 0 29.54-5.52 40.7-16.52 11.16-11.02 16.74-24.46 16.74-40.3zm79.96-140.92c0-7.44 2.76-13.84 8.26-19.22 5.52-5.5 12.06-8.26 19.64-8.26 7.42 0 13.84 2.76 19.2 8.26 5.52 5.38 8.28 11.78 8.28 19.22 0 7.58-2.76 14.06-8.28 19.42-5.36 5.38-11.78 8.06-19.2 8.06-7.58 0-14.12-2.68-19.64-8.06-5.5-5.36-8.26-11.84-8.26-19.42zm10.12 56h35.54v170.46h-35.54v-170.46zm79.96 84.5c0-23.28 9.16-43.94 27.48-61.98 18.46-18.18 39.6-27.28 63.44-27.28 24.52 0 45.94 8.96 64.26 26.86 18.32 17.78 27.48 38.58 27.48 62.4 0 23.98-9.02 45.12-27.08 63.44-17.9 18.18-38.62 27.28-62.18 27.28-25.22 0-47.12-9.04-65.7-27.08-18.46-18.04-27.7-39.26-27.7-63.64zm147.94 0c0-14.46-5.5-27-16.52-37.6-11.02-10.74-24.12-16.12-39.26-16.12-15.56 0-29 5.44-40.3 16.32-11.16 10.76-16.74 23.64-16.74 38.64 0 14.34 5.66 26.86 16.96 37.62 11.42 10.74 24.78 16.1 40.08 16.1 14.88 0 27.9-5.5 39.04-16.52 11.16-11.02 16.74-23.84 16.74-38.44z" fill="#FF2F00"/><path fill="#fff" d="M3324 2306h3102v206H3324z"/></svg>