<svg width="7454" height="3558" fill="none" xmlns="http://www.w3.org/2000/svg"><path fill-rule="evenodd" clip-rule="evenodd" d="M2802 0l-894 1430 694-176L2802 0z" fill="#fff"/><path fill-rule="evenodd" clip-rule="evenodd" d="M2802 0l-894 1430 416-404L2802 0z" fill="#E6E6E6"/><path fill-rule="evenodd" clip-rule="evenodd" d="M1798 1656L608 3558l1922-2054-732 152z" fill="#fff"/><path fill-rule="evenodd" clip-rule="evenodd" d="M1798 1656L608 3558l1370-1940-180 38z" fill="#E6E6E6"/><path fill-rule="evenodd" clip-rule="evenodd" d="M74 938l208 876-262-162 54-714z" fill="#fff"/><path fill-rule="evenodd" clip-rule="evenodd" d="M74 938l20 84-22 662-52-32 54-714z" fill="#E6E6E6"/><path fill-rule="evenodd" clip-rule="evenodd" d="M298 1990l310 1568L0 1774l298 216z" fill="#fff"/><path fill-rule="evenodd" clip-rule="evenodd" d="M100 1908l508 1650L0 1774l100 134z" fill="#E6E6E6"/><path d="M3324 996.729h558.04v137.561h-422.08v251.37h422.08v135.96h-420.52v482.18H3324V996.729zm655.27 678.231c0-89.05 35.02-168.11 105.13-237.15 70.6-69.56 151.49-104.34 242.65-104.34 93.79 0 175.73 34.26 245.83 102.78 70.08 67.97 105.13 147.55 105.13 238.71 0 91.72-34.53 172.59-103.56 242.7-68.49 69.56-147.82 104.34-237.91 104.34-96.45 0-180.23-34.53-251.37-103.55-70.6-69.04-105.9-150.21-105.9-243.49zm565.94 0c0-55.31-21.08-103.27-63.24-143.87-42.16-41.09-92.2-61.65-150.17-61.65-59.54 0-110.93 20.83-154.13 62.45-42.69 41.12-64.04 90.39-64.04 147.82 0 54.82 21.6 102.78 64.81 143.87 43.75 41.1 94.86 61.66 153.36 61.66 56.9 0 106.69-21.08 149.38-63.25 42.68-42.14 64.03-91.16 64.03-147.03zm231.59-323.29h166.78l145.46 185.76 142.27-185.76h165.19l-226.85 294.06 274.28 358.07H5280.3l-192.86-248.98-194.45 248.98h-162.03l275.87-358.07-230.03-294.06zM5974.3 958l475.83 1045.8H6306.3l-117.79-257.68h-427.63l-114.6 257.68h-143.06L5974.3 958zm0 315.41l-162.03 358.1h324.06l-162.03-358.1zm742.22 78.26v134.37c30.56-53.74 60.34-92.48 89.32-116.2 29.51-24.24 67.72-36.37 114.61-36.37 13.17 0 32.14 3.18 56.92 9.5l-41.91 137.53c-26.35-5.27-43.73-7.91-52.15-7.91-46.39 0-85.37 16.36-116.99 49.03-31.1 32.15-46.64 72.45-46.64 120.95v361.23h-137.55v-652.13h134.39zm463.98-189.71h137.54v189.71H7454v125.67h-135.96v526.46H7180.5v-526.46h-108.29v-127.26h108.29v-188.12zM3324 2306h4130v206H3324z" fill="#fff"/></svg>