<svg width="80" height="100" fill="none" xmlns="http://www.w3.org/2000/svg"><path d="M8.82 21.328a17.639 17.639 0 0 1 4.745-1.576c1.657-.35 3.29-.426 4.896-.226 1.657.15 3.24.576 4.746 1.276 1.506.651 2.912 1.602 4.218 2.853 1.306 1.301 2.31 2.727 3.013 4.279.703 1.551 1.205 3.278 1.507 5.18.2 1.3.527 2.501.979 3.602a96.039 96.039 0 0 0 1.43 3.303 48.103 48.103 0 0 1 1.508 3.303 20.076 20.076 0 0 1 1.205 3.453 5.573 5.573 0 0 1-.302 3.378c-.401 1.051-1.255 1.702-2.56 1.952-.754.15-1.482.1-2.185-.15a7.1 7.1 0 0 1-1.808-1.201 16.146 16.146 0 0 1-1.506-1.727c-.402-.65-.779-1.251-1.13-1.802-1.155 1.502-2.41 2.678-3.767 3.529-1.356.8-2.988 1.326-4.896 1.576-1.607.2-3.139.25-4.595.15s-3.013-.375-4.67-.826c-2.16-.55-3.942-1.5-5.348-2.852a15.38 15.38 0 0 1-3.164-4.804c-.703-1.852-1.08-3.829-1.13-5.93-.05-2.102.201-4.18.754-6.23.703-2.703 1.757-4.905 3.163-6.607C5.33 23.53 6.961 22.23 8.82 21.328zm1.883 8.783a7.673 7.673 0 0 0-1.658 2.477c-.401.95-.652 1.951-.753 3.002-.05 1.051.05 2.102.301 3.153.252 1.051.653 1.977 1.206 2.778.502.7 1.356 1.3 2.56 1.801 1.206.45 2.461.726 3.767.826 1.507.1 2.812-.3 3.917-1.201a8.104 8.104 0 0 0 2.561-3.378c.603-1.401.879-2.878.829-4.429-.05-1.601-.477-3.053-1.28-4.354a5.437 5.437 0 0 0-2.411-2.102 7.143 7.143 0 0 0-3.089-.675 8.52 8.52 0 0 0-3.314.525c-1.055.35-1.933.876-2.636 1.577zM32.9 68.116c.401.701.602 1.452.602 2.252a3.94 3.94 0 0 1-.527 2.252c-.452.901-1.105 1.527-1.959 1.877-.803.3-1.707.325-2.711.075a3.274 3.274 0 0 1-1.206-.526c-.351-.25-.728-.5-1.13-.75a6.265 6.265 0 0 0-1.28-.826c-.452-.25-1.055-.425-1.808-.525-.753-.1-1.582-.1-2.486 0-.853.1-1.632.3-2.335.6-1.105.55-1.983 1.401-2.636 2.552a9.982 9.982 0 0 0-1.28 3.604 10.872 10.872 0 0 0 .075 3.828c.3 1.301.853 2.402 1.657 3.303.602.7 1.38 1.276 2.335 1.726 1.004.45 1.958.726 2.862.826.854.1 1.708.1 2.561 0 .854-.15 1.683-.35 2.486-.6.603-.25 1.28-.576 2.034-.976.753-.45 1.481-.726 2.184-.826.904 0 1.607.25 2.11.75.502.451.853 1.026 1.054 1.727.2.65.226 1.351.075 2.102-.1.75-.376 1.401-.828 1.952-.603.75-1.457 1.476-2.561 2.176-1.105.651-2.16 1.127-3.164 1.427-1.205.4-2.561.625-4.068.675-1.456.05-2.837 0-4.143-.15-.602-.1-1.23-.225-1.883-.375s-1.28-.325-1.883-.526c-2.21-.8-4.068-1.926-5.574-3.377a16.771 16.771 0 0 1-3.39-5.03c-.753-1.852-1.18-3.828-1.28-5.93-.1-2.102.15-4.179.753-6.23.552-1.952 1.23-3.604 2.034-4.955.854-1.351 1.833-2.452 2.938-3.303a13.635 13.635 0 0 1 3.841-2.102 34.32 34.32 0 0 1 4.67-1.426c1.758-.35 3.616-.35 5.574 0 1.959.35 3.717 1.001 5.273 1.952 1.206.65 2.21 1.576 3.013 2.777zm21.039-2.646a21.14 21.14 0 0 1 5.197-1.727 17.554 17.554 0 0 1 5.349-.225c1.807.2 3.54.676 5.197 1.427 1.707.75 3.264 1.801 4.67 3.152 1.155 1.151 2.16 2.553 3.013 4.204.854 1.601 1.482 3.178 1.884 4.729a16.19 16.19 0 0 1 .376 8.332 25.141 25.141 0 0 1-3.088 7.807 13.508 13.508 0 0 1-2.637 3.003 14.95 14.95 0 0 1-3.239 2.102c-1.506.7-3.138 1.175-4.896 1.426-1.758.3-3.465.375-5.122.225-3.013-.15-5.675-.9-7.985-2.252-2.26-1.351-4.092-3.078-5.498-5.18-1.356-2.101-2.26-4.478-2.712-7.13-.402-2.703-.226-5.456.527-8.258.804-3.002 1.959-5.43 3.465-7.281 1.557-1.902 3.39-3.353 5.499-4.354zm2.26 10.059c-.753.7-1.331 1.576-1.733 2.627a12.164 12.164 0 0 0-.753 3.303c-.1 1.1-.025 2.227.226 3.378a10.2 10.2 0 0 0 1.356 3.002c.502.751 1.406 1.377 2.712 1.877 1.305.5 2.661.8 4.067.9 1.607.1 3.013-.324 4.218-1.275a9.392 9.392 0 0 0 2.712-3.678c.653-1.452.954-3.028.904-4.73-.05-1.701-.502-3.252-1.356-4.654-.602-1-1.456-1.726-2.56-2.176a7.805 7.805 0 0 0-3.39-.751 9.276 9.276 0 0 0-3.465.525c-1.156.35-2.135.901-2.938 1.652zM47.982 5.49c.1-1.802.652-3.254 1.657-4.355 1.054-1.1 2.536-1.4 4.444-.9.904.25 1.557.625 1.959 1.126.451.5.753 1.1.903 1.801.201.65.302 1.376.302 2.177V17.95c-.05.4-.076.8-.076 1.201.05.35.076.676.076.976v.976h3.465c.552 0 1.03-.025 1.43-.075 2.763 0 5.123.4 7.081 1.2 2.01.801 3.616 1.927 4.821 3.379 1.256 1.4 2.16 3.102 2.712 5.104.603 1.952.879 4.104.829 6.456-.05 2.802-.502 5.204-1.356 7.206-.854 2.002-2.06 3.653-3.616 4.954-1.556 1.302-3.44 2.277-5.65 2.928-2.159.6-4.594.9-7.306.9-3.113 0-5.474-.024-7.08-.074-1.608-.05-2.762-.5-3.465-1.352-.653-.85-1.005-2.327-1.055-4.428-.05-2.102-.075-5.18-.075-9.233v-11.56c.05-3.804.05-7.632 0-11.485 0-.501-.026-1.026-.076-1.577V9.092c0-1 .025-2.202.076-3.603zm14.086 39.258c2.761-.15 4.67-.9 5.724-2.252.553-.75.98-1.651 1.28-2.702a9.693 9.693 0 0 0 .377-3.153 8.723 8.723 0 0 0-.677-3.002 5.452 5.452 0 0 0-1.733-2.478c-.703-.6-1.406-1.025-2.11-1.276a6.646 6.646 0 0 0-2.184-.525c-.753-.1-1.556-.125-2.41-.075-.854 0-1.833.025-2.938.075v9.008l-.15 6.23c.502.05 1.03.1 1.581.15.955.1 2.034.1 3.24 0z" fill="#0F3FBB"/></svg>